<svg width="17" height="15" viewBox="0 0 17 15" fill="none" xmlns="http://www.w3.org/2000/svg">
<path d="M7.19007 6.83006L7.19007 4.65006H7.21007L9.07007 3.56006H9.09007L10.9501 4.65006V6.83006H10.9301L9.06007 7.92006H9.04007L7.18007 6.83006H7.19007ZM7.28007 4.70006L7.28007 6.78006L9.08007 7.82006L10.8801 6.78006V4.70006L9.08007 3.66006L7.28007 4.70006Z" fill="#EAEAEA"/>
<path d="M7.57009 12.56V10.82H7.59009L9.08009 9.94995H9.10009L10.5901 10.82V12.56H10.5701L9.08009 13.43H9.06009L7.57009 12.56ZM7.64009 10.86V12.52L9.08009 13.35L10.5201 12.52V10.86L9.08009 10.03L7.64009 10.86Z" fill="#CFCFCF"/>
<path d="M3.00007 8.93993L3.00007 7.09993H3.02007L4.60007 6.17993H4.62007L6.20007 7.09993L6.20007 8.93993H6.18007L4.60007 9.85993H4.58007L3.00007 8.93993ZM3.07007 7.13993L3.07007 8.89993L4.59007 9.77993L6.11007 8.89993L6.11007 7.13993L4.59007 6.25993L3.07007 7.13993Z" fill="#CFCFCF"/>
<path d="M8.7738e-05 6.61002L8.7738e-05 5.54002L0.920088 5.02002L1.84009 5.54002L1.84009 6.61002L0.920088 7.13002L8.7738e-05 6.61002ZM0.0400887 5.57002L0.0400887 6.58002L0.920088 7.09002L1.80009 6.58002L1.80009 5.57002L0.920088 5.06002L0.0400887 5.57002Z" fill="#EAEAEA"/>
<path d="M3.83001 3.9401V3.0401L4.61001 2.6001L5.39001 3.0401V3.9401L4.61001 4.3801L3.83001 3.9401ZM3.87001 3.0601V3.9201L4.61001 4.3501L5.35001 3.9201V3.0601L4.61001 2.6301L3.87001 3.0601Z" fill="#EAEAEA"/>
<path d="M3.76004 12.4599L3.76004 11.4299L4.65004 10.9199L5.54004 11.4299V12.4599L4.65004 12.9699L3.76004 12.4599ZM3.80004 11.4599L3.80004 12.4399L4.65004 12.9299L5.50004 12.4399V11.4599L4.65004 10.9699L3.80004 11.4599Z" fill="#CFCFCF"/>
<path d="M6.44009 14.26V13.23L7.33009 12.72L8.22009 13.23V14.26L7.33009 14.77L6.44009 14.26ZM6.48009 13.26V14.24L7.33009 14.73L8.18009 14.24V13.26L7.33009 12.77L6.48009 13.26Z" fill="#CFCFCF"/>
<path d="M12.17 13.98V12.83L13.16 12.26L14.15 12.83V13.98L13.16 14.55L12.17 13.98ZM12.22 12.86V13.95L13.16 14.5L14.1 13.95V12.86L13.16 12.31L12.22 12.86Z" fill="#CFCFCF"/>
<path d="M15.69 7.92997V7.28997L16.24 6.96997L16.79 7.28997V7.92997L16.24 8.24997L15.69 7.92997ZM15.72 7.29997V7.90997L16.25 8.21997L16.78 7.90997V7.29997L16.25 6.98997L15.72 7.29997Z" fill="#CFCFCF"/>
<path d="M12.7501 3.7201V2.8001L13.5401 2.3501L14.3301 2.8001V3.7201L13.5401 4.1701L12.7501 3.7201ZM12.7901 2.8301V3.7001L13.5501 4.1401L14.3101 3.7001V2.8301L13.5501 2.3901L12.7901 2.8301Z" fill="#CFCFCF"/>
<path d="M10.0901 1.5V0.49L10.9601 0L11.8301 0.49V1.5L10.9601 1.99L10.0901 1.5ZM10.1301 0.52V1.47L10.9601 1.95L11.7901 1.47V0.52L10.9601 0.04L10.1301 0.52Z" fill="#EAEAEA"/>
<path d="M11.8601 10.0701V8.56007L13.1601 7.82007H13.1801L14.4701 8.57007V10.0801L13.1701 10.8201H13.1501L11.8601 10.0701ZM11.9201 8.60007V10.0301L13.1601 10.7501L14.4001 10.0301V8.60007L13.1601 7.88007L11.9201 8.60007Z" fill="#EAEAEA"/>
<path d="M10.86 4.67993L12.77 3.67993L12.8 3.72993L10.89 4.72993L10.86 4.67993Z" fill="#EAEAEA"/>
<path d="M14.42 8.5799L15.71 7.8999L15.73 7.9399L14.44 8.6199L14.42 8.5799Z" fill="#EAEAEA"/>
<path d="M9.10999 9.98007V7.82007H9.04999V9.98007H9.10999Z" fill="#EAEAEA"/>
<path d="M5.34004 3.93989L5.36004 3.88989L7.29004 4.67989L7.27004 4.72989L5.34004 3.93989Z" fill="#EAEAEA"/>
<path d="M4.64001 6.2301L4.64001 4.3501H4.58001L4.58001 6.2301H4.64001Z" fill="#EAEAEA"/>
<path d="M1.79006 6.61006L1.81006 6.56006L3.06006 7.10006L3.04006 7.16006L1.79006 6.61006Z" fill="#EAEAEA"/>
<path d="M10.51 10.84L11.89 10.02L11.92 10.07L10.53 10.88L10.51 10.84Z" fill="#EAEAEA"/>
<path d="M13.2101 12.3V10.77H13.1501V12.3H13.2101Z" fill="#EAEAEA"/>
</svg>
