<svg width="1365" height="185" viewBox="0 0 1365 185" fill="none" xmlns="http://www.w3.org/2000/svg">
<path d="M34.7056 1.069C30.8389 1.73567 24.9723 3.20233 21.7723 4.40233C13.9056 7.33567 4.57227 18.0023 1.9056 26.8023C-2.22773 40.5357 0.0389364 50.1357 11.9056 70.5357C14.9723 76.0023 27.7723 98.1357 40.3056 119.736C70.5723 172.536 73.1056 176.136 83.2389 181.469C87.3723 183.736 90.8389 184.402 99.2389 184.402C111.772 184.402 117.372 182.002 126.172 172.802C131.772 167.069 175.506 93.069 192.172 61.069C200.039 46.1357 200.172 45.7357 199.639 37.069C198.572 23.069 190.706 10.5357 179.106 4.93567C174.039 2.53567 169.506 1.869 150.172 0.935668C121.772 -0.397666 44.4389 -0.264333 34.7056 1.069ZM107.772 10.4023C122.839 12.5357 131.906 23.2023 131.906 38.8023C131.906 45.069 131.372 47.069 128.839 49.6023C125.906 52.5357 124.839 52.669 91.2389 53.6023C72.1723 54.1357 54.4389 55.069 51.7723 55.7357C44.8389 57.6023 36.5723 65.469 32.5723 73.7357C30.7056 77.7357 28.7056 81.069 28.1723 81.069C27.2389 81.069 22.8389 73.2023 13.5056 55.069C9.63894 47.7357 8.57227 44.269 8.57227 38.4023C8.57227 29.2023 13.6389 20.0023 21.5056 14.669C26.3056 11.6023 28.8389 10.9357 40.4389 10.269C63.1056 9.069 98.8389 9.069 107.772 10.4023ZM173.906 12.269C179.239 14.5357 186.439 21.869 188.706 27.3357C191.639 34.1357 190.972 44.8023 187.372 52.4023C183.639 60.4023 161.906 98.1357 153.772 110.669C145.772 123.202 134.839 128.402 123.106 125.202C116.972 123.602 106.972 116.269 105.772 112.669C105.239 111.069 109.239 102.802 117.372 88.669C140.706 47.7357 139.772 49.7357 139.906 37.7357C139.906 26.269 137.239 18.1357 131.506 11.869L128.572 8.669L149.239 9.73567C160.572 10.269 171.639 11.3357 173.906 12.269ZM83.3723 91.7357C105.639 130.402 110.039 134.402 130.972 134.402C135.906 134.402 139.906 134.669 139.906 134.936C139.906 135.202 137.106 140.402 133.772 146.536C120.306 170.936 115.372 175.069 99.9056 175.069C82.4389 175.069 80.7056 173.336 53.7723 126.402C41.3723 104.669 38.0389 97.7357 37.5056 92.669C36.5723 83.7357 40.0389 75.7357 47.3723 69.2023C53.6389 63.7357 56.4389 62.5357 63.1056 62.9357C66.5723 63.069 68.1723 65.3357 83.3723 91.7357ZM120.439 63.469C121.372 65.069 100.839 100.536 99.2389 100.002C96.7056 99.3357 77.5056 64.4023 79.1056 63.469C81.1056 62.0023 119.639 62.1357 120.439 63.469Z" fill="black"/>
<path d="M247.906 22.269C247.106 24.0023 246.572 47.469 246.572 89.6023C246.572 146.536 246.839 154.402 248.706 156.269C251.106 158.802 254.706 159.069 256.972 156.802C258.172 155.602 258.572 146.536 258.572 124.002V92.8023L275.639 93.3357C302.706 94.1357 304.572 95.7357 322.972 132.669C329.772 146.136 336.172 157.336 337.372 157.736C340.439 158.802 343.639 157.202 344.572 154.402C345.639 151.069 321.772 103.736 315.372 96.269C311.772 92.1357 303.906 86.8023 297.506 84.269C297.372 84.1357 305.906 71.3357 316.572 55.6023C328.039 38.8023 335.906 26.0023 335.639 24.5357C335.106 20.9357 331.106 18.8023 328.306 20.5357C326.972 21.2023 316.706 35.469 305.506 52.1357L285.239 82.4023H271.906H258.572V52.669C258.572 31.3357 258.172 22.5357 256.972 21.3357C254.572 18.9357 249.506 19.469 247.906 22.269Z" fill="black"/>
<path d="M356.306 20.5358C355.372 20.9358 354.572 22.4025 354.572 23.7358C354.572 25.0692 367.239 46.4025 382.839 71.2025L411.106 116.269L402.172 133.736C397.239 143.336 393.239 152.403 393.239 154.003C393.239 157.336 397.372 159.203 400.839 157.203C402.172 156.536 418.439 126.403 437.106 90.2692C472.706 21.0692 472.972 20.4025 464.439 20.4025C460.706 20.4025 459.772 22.0025 439.239 61.6025C427.506 84.2692 417.372 102.669 416.572 102.669C415.906 102.536 403.639 83.8692 389.506 61.3358C363.372 19.8692 362.039 18.1358 356.306 20.5358Z" fill="black"/>
<path d="M637.506 21.3357C635.372 23.469 635.106 151.869 637.239 155.869C639.639 160.136 643.506 158.802 648.839 152.002C651.639 148.536 671.372 122.136 692.572 93.469L731.239 41.3357L731.906 98.669C732.572 151.469 732.706 156.269 734.839 157.602C736.572 158.669 737.906 158.669 739.506 157.602C741.772 156.269 741.906 151.336 742.306 90.9357C742.439 55.069 742.306 24.4023 741.906 22.669C741.372 20.669 740.172 19.7357 737.906 19.7357C733.906 19.7357 735.372 17.869 686.572 84.1357C665.639 112.402 648.172 135.736 647.639 135.736C647.106 135.736 646.439 109.736 646.306 78.0023L645.906 20.4023L642.572 20.0023C640.706 19.7357 638.439 20.4023 637.506 21.3357Z" fill="black"/>
<path d="M880.839 20.6688C878.439 23.0688 882.039 29.7355 908.172 71.4688L936.439 116.402L927.372 133.735C922.439 143.202 918.439 152.402 918.572 154.002C918.572 157.335 922.706 159.202 926.172 157.335C927.372 156.669 943.639 126.402 962.306 90.2688C997.906 21.2021 998.172 20.4021 989.772 20.4021C986.039 20.4021 985.239 21.8688 969.106 53.0688C942.572 104.402 942.572 104.402 940.706 102.269C939.772 101.202 927.906 82.6688 914.572 61.0688C901.106 39.4688 889.372 21.3355 888.706 20.8021C886.839 19.4688 882.039 19.4688 880.839 20.6688Z" fill="black"/>
<path d="M1160.84 21.2025C1152.57 23.2025 1142.57 28.9358 1135.91 35.7358C1124.44 47.0691 1118.84 61.8691 1117.64 83.7358C1115.91 116.936 1128.57 142.002 1152.71 153.336C1159.91 156.669 1163.77 157.602 1173.77 158.136C1206.31 159.736 1229.11 142.802 1236.57 111.469C1238.84 101.469 1239.24 77.4691 1237.11 67.4691C1232.31 44.8025 1217.51 27.8691 1197.37 21.8691C1189.51 19.6025 1169.51 19.2025 1160.84 21.2025ZM1200.31 34.8025C1217.64 43.3358 1226.57 61.7358 1226.57 89.0691C1226.57 124.536 1210.04 145.736 1181.11 147.469C1163.51 148.536 1150.31 142.669 1140.71 129.469C1129.51 114.002 1126.44 83.3358 1133.91 60.9358C1136.57 52.8025 1143.51 43.3358 1150.04 38.5358C1158.71 32.1358 1165.64 30.2691 1179.91 30.8025C1190.71 31.0691 1193.91 31.7358 1200.31 34.8025Z" fill="black"/>
<path d="M491.906 23.6023C491.106 25.3357 490.572 48.4023 490.572 90.269C490.572 146.669 490.839 154.402 492.706 156.269C495.106 158.802 498.706 159.069 500.972 156.802C502.172 155.602 502.572 139.736 502.572 93.469V31.7357H545.906H589.239L589.506 93.869C589.906 151.469 590.039 156.269 592.306 157.602C593.906 158.669 595.239 158.669 596.972 157.602C599.106 156.269 599.239 151.469 599.239 88.9357V21.7357L546.306 21.3357C494.972 21.069 493.239 21.069 491.906 23.6023Z" fill="black"/>
<path d="M761.505 22.669C759.372 24.8023 759.505 27.069 762.039 29.6023C763.772 31.3357 768.039 31.7357 788.039 31.7357H811.905V92.9357C811.905 146.802 812.172 154.402 814.039 156.269C816.439 158.802 820.039 159.069 822.305 156.802C823.505 155.602 823.905 139.736 823.905 93.469V31.7357H848.439C874.705 31.7357 876.572 31.3357 875.639 24.8023L875.239 21.7357L819.239 21.3357C776.705 21.069 762.705 21.469 761.505 22.669Z" fill="black"/>
<path d="M999.506 22.0024C998.039 23.469 998.439 28.4024 1000.17 30.1357C1001.24 31.2024 1008.97 31.7357 1026.17 31.7357H1050.57L1050.84 93.869C1051.24 151.469 1051.37 156.269 1053.64 157.602C1055.24 158.669 1056.57 158.669 1058.31 157.602C1060.44 156.269 1060.57 151.469 1060.97 93.869L1061.24 31.7357H1085.77C1112.04 31.7357 1113.91 31.3357 1112.97 24.8024L1112.57 21.7357L1056.44 21.3357C1025.64 21.2024 999.906 21.469 999.506 22.0024Z" fill="black"/>
<path d="M1270.84 22.6688C1269.64 23.8688 1269.24 40.5354 1269.24 89.2021C1269.24 146.535 1269.51 154.402 1271.37 156.269C1273.77 158.802 1275.11 158.935 1278.71 157.069C1281.11 155.735 1281.24 154.002 1281.24 128.535V101.335L1308.97 100.802C1334.31 100.402 1337.11 100.135 1343.24 97.3354C1351.24 93.6021 1357.77 87.6021 1361.64 80.4021C1364.17 75.8688 1364.57 72.9354 1364.57 61.0688C1364.57 48.0021 1364.31 46.5354 1360.57 40.0021C1356.04 31.6021 1348.97 26.2688 1338.57 23.2021C1329.51 20.5354 1273.51 20.0021 1270.84 22.6688ZM1337.91 34.4021C1341.51 36.2688 1346.17 40.0021 1348.44 42.8021C1351.91 47.2021 1352.44 48.9354 1352.97 58.8021C1353.37 68.2688 1352.97 70.5354 1350.31 75.7354C1346.97 82.2688 1340.97 86.9354 1333.37 89.0688C1330.71 89.7354 1317.91 90.4021 1304.97 90.4021H1281.24V60.2688V30.1354L1306.31 30.6688C1329.64 31.0688 1331.77 31.3354 1337.91 34.4021Z" fill="black"/>
</svg>
