<svg xmlns="http://www.w3.org/2000/svg" width="27" height="34" viewBox="0 0 27 34" fill="none">
<g clip-path="url(#clip0_15196_73894)">
<path d="M0 5H26V18.2411C26 21.6365 24.1911 24.7669 21.25 26.471L13 31.3307L4.75871 26.471C1.81765 24.7796 0.0126224 21.6365 0.0126224 18.2411V5H0Z" fill="#FFDD2D"/>
<path fill-rule="evenodd" clip-rule="evenodd" d="M7 11.9677V16.0826C7.56802 15.4515 8.59044 15.0223 9.75172 15.0223H11.0266V19.8063C11.0266 21.0811 10.6858 22.1919 10.1683 22.8104H15.83C15.3125 22.1919 15 21.0811 15 19.8063V15.0223H16.24C17.4139 15.0223 18.4446 15.4515 19 16.0826V11.9677H7Z" fill="#333333"/>
</g>
<defs>
<clipPath id="clip0_15196_73894">
<rect width="152" height="34" fill="white"/>
</clipPath>
</defs>
</svg>