<svg width="20" height="20" viewBox="0 0 20 20" fill="none" xmlns="http://www.w3.org/2000/svg">
<g clip-path="url(#clip0_1_4)">
<path d="M7.25 19.5C7.94036 19.5 8.5 18.9404 8.5 18.25C8.5 17.5596 7.94036 17 7.25 17C6.55964 17 6 17.5596 6 18.25C6 18.9404 6.55964 19.5 7.25 19.5Z" fill="black"/>
<path d="M15.25 19.5C15.9404 19.5 16.5 18.9404 16.5 18.25C16.5 17.5596 15.9404 17 15.25 17C14.5596 17 14 17.5596 14 18.25C14 18.9404 14.5596 19.5 15.25 19.5Z" fill="black"/>
<path d="M19.8431 2.66983C19.7823 2.60128 19.7057 2.5459 19.6188 2.50767C19.5318 2.46944 19.4367 2.44931 19.3402 2.44873H5.74099L6.16556 3.64389H18.4845L16.7405 10.8149H6.94284L3.95781 2.16786C3.92552 2.07611 3.86945 1.99286 3.79439 1.92522C3.71932 1.85759 3.62748 1.80757 3.52671 1.77943L0.848679 1.02647C0.766333 1.00332 0.67981 0.99524 0.594049 1.00268C0.508288 1.01012 0.424969 1.03295 0.348849 1.06985C0.195118 1.14437 0.0800429 1.27172 0.0289389 1.42387C-0.0221651 1.57602 -0.00511173 1.74051 0.0763473 1.88116C0.157806 2.0218 0.296999 2.12708 0.463303 2.17384L2.80822 2.83118L5.80631 11.4961L4.73509 12.2969L4.65018 12.3746C4.38521 12.654 4.23502 13.0091 4.22548 13.3789C4.21594 13.7487 4.34765 14.1099 4.59793 14.4004C4.77596 14.5985 5.00218 14.7557 5.25851 14.8595C5.51484 14.9632 5.79415 15.0107 6.07411 14.998H16.9757C17.1489 14.998 17.315 14.935 17.4375 14.823C17.56 14.7109 17.6288 14.5589 17.6288 14.4004C17.6288 14.2419 17.56 14.0899 17.4375 13.9779C17.315 13.8658 17.1489 13.8028 16.9757 13.8028H5.9696C5.89439 13.8005 5.8211 13.7804 5.75683 13.7446C5.69256 13.7088 5.63948 13.6584 5.60271 13.5983C5.56594 13.5382 5.54672 13.4705 5.54691 13.4016C5.54711 13.3328 5.56671 13.2651 5.60382 13.2052L7.17798 12.0101H17.2631C17.4141 12.0134 17.5617 11.9688 17.6807 11.8839C17.7998 11.7989 17.8831 11.6788 17.9162 11.544L19.9868 3.17778C20.0067 3.08869 20.0041 2.99663 19.9792 2.9086C19.9543 2.82058 19.9077 2.73892 19.8431 2.66983Z" fill="black"/>
</g>
<defs>
<clipPath id="clip0_1_4">
<rect width="20" height="20" fill="white"/>
</clipPath>
</defs>
</svg>
