<?xml version="1.0" standalone="no"?>
<!DOCTYPE svg PUBLIC "-//W3C//DTD SVG 20010904//EN"
 "http://www.w3.org/TR/2001/REC-SVG-20010904/DTD/svg10.dtd">
<svg version="1.0" xmlns="http://www.w3.org/2000/svg"
 width="512.000000pt" height="512.000000pt" viewBox="0 0 512.000000 512.000000"
 preserveAspectRatio="xMidYMid meet">

<g transform="translate(0.000000,512.000000) scale(0.100000,-0.100000)"
fill="#000000" stroke="none">
<path d="M482 5080 c-100 -27 -174 -70 -259 -156 -54 -53 -82 -91 -108 -146
-64 -135 -65 -141 -65 -873 0 -735 1 -741 66 -875 91 -183 308 -319 512 -320
l42 0 0 -202 c0 -192 2 -206 24 -253 28 -61 87 -116 149 -140 57 -22 165 -17
217 10 19 9 130 112 247 228 l212 210 3 -629 3 -629 27 -80 c86 -254 294 -428
552 -464 47 -7 273 -11 574 -11 l497 0 340 -339 c221 -220 356 -347 385 -362
37 -20 60 -24 130 -24 73 0 92 4 136 27 28 15 70 48 92 73 67 76 72 104 72
382 l0 243 43 0 c310 2 566 184 665 475 l27 80 0 845 c0 945 3 895 -73 1050
-54 111 -178 233 -292 288 -152 75 -120 72 -921 72 l-718 0 -3 533 c-4 516 -4
534 -26 597 -66 197 -228 349 -423 395 -55 13 -203 15 -1059 14 -949 0 -998
-1 -1068 -19z m2130 -247 c71 -32 141 -103 174 -176 l29 -62 0 -515 0 -515
-385 -6 c-422 -6 -414 -5 -545 -72 -191 -100 -324 -286 -355 -503 l-12 -81
-283 -283 c-205 -205 -287 -281 -301 -278 -18 3 -19 18 -24 263 -7 347 0 337
-215 346 -135 5 -147 7 -208 37 -76 38 -129 92 -166 171 l-26 56 0 685 c0 639
1 689 18 738 21 58 100 153 151 179 81 42 67 42 1106 40 l995 -2 47 -22z
m1970 -1552 c121 -61 213 -181 238 -311 14 -72 14 -1549 0 -1621 -24 -126
-108 -243 -218 -302 -72 -39 -167 -57 -308 -57 -109 0 -124 -2 -149 -22 -52
-41 -55 -62 -55 -379 0 -440 27 -441 -435 22 -193 193 -362 357 -377 365 -22
12 -117 14 -565 14 -587 0 -626 3 -725 57 -110 59 -194 176 -218 302 -14 72
-14 1549 0 1621 29 150 139 278 285 331 47 18 112 18 1255 16 l1205 -2 67 -34z"/>
<path d="M2480 2319 c-94 -38 -130 -161 -75 -255 28 -48 91 -84 146 -84 78 0
160 69 175 146 14 74 -27 153 -97 190 -32 16 -112 18 -149 3z"/>
<path d="M3230 2323 c-91 -34 -137 -155 -92 -242 9 -19 34 -48 55 -65 34 -27
47 -31 102 -31 55 0 68 4 102 31 136 109 69 315 -102 313 -27 0 -57 -3 -65 -6z"/>
<path d="M3955 2312 c-127 -80 -124 -244 5 -309 121 -62 250 20 250 159 0 60
-23 105 -73 142 -40 29 -141 34 -182 8z"/>
</g>
</svg>
