<?xml version="1.0" encoding="UTF-8"?>
<!DOCTYPE svg PUBLIC "-//W3C//DTD SVG 1.1//EN" "http://www.w3.org/Graphics/SVG/1.1/DTD/svg11.dtd">
<svg xmlns="http://www.w3.org/2000/svg" version="1.1" width="512px" height="512px" style="shape-rendering:geometricPrecision; text-rendering:geometricPrecision; image-rendering:optimizeQuality; fill-rule:evenodd; clip-rule:evenodd" xmlns:xlink="http://www.w3.org/1999/xlink">
<g><path style="opacity:0.961" fill="#000000" d="M 66.5,9.5 C 75.5867,7.95924 82.0867,11.2926 86,19.5C 87.2675,38.1232 87.9341,56.7899 88,75.5C 140.846,26.8806 203.346,5.04727 275.5,10C 362.603,19.7674 428.103,62.2674 472,137.5C 504.285,199.691 510.285,264.357 490,331.5C 460.304,415.196 402.804,469.363 317.5,494C 223.511,514.772 142.678,491.272 75,423.5C 30.7087,374.542 9.04201,316.875 10,250.5C 15.8525,239.329 24.3525,236.829 35.5,243C 36.7875,244.41 37.9542,245.91 39,247.5C 40.8743,326.096 73.3743,388.262 136.5,434C 215.847,482.66 295.18,482.66 374.5,434C 445.148,382.854 476.315,313.688 468,226.5C 454.584,147.768 411.751,91.6014 339.5,58C 261.215,28.0412 188.548,38.0412 121.5,88C 116.533,91.966 111.866,96.2993 107.5,101C 128.564,101.034 149.564,101.7 170.5,103C 179.109,108.597 181.275,116.097 177,125.5C 174.245,129.577 170.412,132.077 165.5,133C 133.5,133.667 101.5,133.667 69.5,133C 62.9511,132.116 58.4511,128.616 56,122.5C 55.3333,88.5 55.3333,54.5 56,20.5C 57.6844,14.9845 61.1844,11.3178 66.5,9.5 Z"/></g>
<g><path style="opacity:0.965" fill="#000000" d="M 250.5,132.5 C 257.145,131.965 263.478,133.131 269.5,136C 308.911,150.804 348.245,165.804 387.5,181C 391.325,183.488 393.492,186.988 394,191.5C 394.667,239.5 394.667,287.5 394,335.5C 392.601,341.9 388.767,346.066 382.5,348C 340.363,364.07 298.03,379.57 255.5,394.5C 212.33,379.165 169.33,363.332 126.5,347C 121.162,344.993 117.996,341.159 117,335.5C 116.333,287.5 116.333,239.5 117,191.5C 118.298,185.531 121.798,181.365 127.5,179C 168.638,163.57 209.638,148.07 250.5,132.5 Z M 252.5,165.5 C 254.527,165.338 256.527,165.505 258.5,166C 283.167,175.333 307.833,184.667 332.5,194C 307.833,203.333 283.167,212.667 258.5,222C 255.406,222.652 252.406,222.318 249.5,221C 225.833,212 202.167,203 178.5,194C 203.383,184.766 228.05,175.266 252.5,165.5 Z M 148.5,217.5 C 178.854,228.34 209.02,239.673 239,251.5C 239.667,286.167 239.667,320.833 239,355.5C 209.237,344.037 179.403,332.704 149.5,321.5C 148.5,286.84 148.167,252.173 148.5,217.5 Z M 360.5,217.5 C 361.833,234.487 362.5,251.82 362.5,269.5C 362.167,286.833 361.833,304.167 361.5,321.5C 331.597,332.704 301.763,344.037 272,355.5C 271.333,320.833 271.333,286.167 272,251.5C 301.543,240.045 331.043,228.712 360.5,217.5 Z"/></g>
</svg>
