<svg width="20" height="20" viewBox="0 0 20 20" fill="none" xmlns="http://www.w3.org/2000/svg">
<g clip-path="url(#clip0_2_37)">
<path d="M10 20L9.15778 19.144C7.34445 17.2811 5.84445 15.6865 4.65778 14.3602C3.47185 13.033 2.53556 11.8625 1.84889 10.8485C1.16223 9.83462 0.682225 8.91819 0.408892 8.09922C0.135559 7.28026 -0.000737738 6.45505 3.003e-06 5.62359C3.003e-06 4.03399 0.480003 2.69933 1.44 1.6196C2.4 0.539865 3.58667 0 5 0C5.97778 0 6.89445 0.281179 7.75 0.843539C8.60556 1.4059 9.35556 2.22403 10 3.29793C10.6444 2.22403 11.3944 1.4059 12.25 0.843539C13.1056 0.281179 14.0222 0 15 0C16.4133 0 17.6 0.539865 18.56 1.6196C19.52 2.69933 20 4.03399 20 5.62359C20 6.45339 19.8637 7.27818 19.5911 8.09798C19.3178 8.91944 18.8378 9.83671 18.1511 10.8498C17.4644 11.8629 16.5315 13.033 15.3522 14.3602C14.173 15.6865 12.6693 17.2811 10.8411 19.144L10 20ZM10 18.3079C11.7778 16.5 13.2407 14.9521 14.3889 13.6641C15.537 12.3761 16.4444 11.2576 17.1111 10.3087C17.7778 9.35974 18.2407 8.52037 18.5 7.79055C18.7593 7.05907 18.8889 6.33675 18.8889 5.62359C18.8889 4.37391 18.5185 3.3325 17.7778 2.49938C17.037 1.66625 16.1111 1.24969 15 1.24969C14.1156 1.24969 13.2993 1.53378 12.5511 2.10197C11.803 2.67017 11.1341 3.52537 10.5444 4.66758H9.45778C8.8526 3.50954 8.17963 2.65017 7.43889 2.08948C6.69815 1.52962 5.88556 1.24969 5.00111 1.24969C3.90482 1.24969 2.9826 1.66625 2.23445 2.49938C1.4863 3.3325 1.11185 4.37391 1.11111 5.62359C1.11111 6.33675 1.24074 7.05907 1.5 7.79055C1.75926 8.52204 2.22222 9.36141 2.88889 10.3087C3.55556 11.2559 4.46297 12.3702 5.61111 13.6516C6.75926 14.9329 8.22222 16.485 10 18.3079Z" fill="white"/>
</g>
<defs>
<clipPath id="clip0_2_37">
<rect width="20" height="20" fill="white"/>
</clipPath>
</defs>
</svg>
