<svg width="20" height="20" viewBox="0 0 20 20" fill="none" xmlns="http://www.w3.org/2000/svg">
<g clip-path="url(#clip0_1_13)">
<path d="M10 9C10.9889 9 11.9556 8.73608 12.7778 8.24161C13.6001 7.74715 14.241 7.04434 14.6194 6.22208C14.9978 5.39981 15.0968 4.49501 14.9039 3.62209C14.711 2.74918 14.2348 1.94736 13.5355 1.31802C12.8363 0.688685 11.9454 0.260102 10.9755 0.0864682C10.0055 -0.0871652 9.00021 0.00194977 8.08658 0.342544C7.17295 0.683138 6.39206 1.25991 5.84265 1.99994C5.29324 2.73996 5 3.60999 5 4.5C5 5.69347 5.52678 6.83807 6.46447 7.68198C7.40215 8.52589 8.67392 9 10 9ZM10 1.28572C10.7064 1.28572 11.3969 1.47423 11.9842 1.82742C12.5715 2.18061 13.0293 2.68261 13.2996 3.26995C13.5699 3.85728 13.6406 4.50357 13.5028 5.12708C13.365 5.75059 13.0249 6.32332 12.5254 6.77284C12.0259 7.22237 11.3895 7.5285 10.6968 7.65252C10.004 7.77655 9.28586 7.71289 8.63327 7.46961C7.98068 7.22633 7.4229 6.81435 7.03047 6.28576C6.63803 5.75718 6.42857 5.13573 6.42857 4.5C6.42857 3.64752 6.80485 2.82995 7.47462 2.22716C8.14439 1.62436 9.0528 1.28572 10 1.28572Z" fill="black"/>
<path d="M17.6738 13.8341C16.6869 12.6231 15.4977 11.6585 14.1788 10.9993C12.8599 10.34 11.439 10 10.0031 10C8.56712 10 7.14626 10.34 5.82735 10.9993C4.50844 11.6585 3.31919 12.6231 2.33231 13.8341C2.11835 14.0995 1.99952 14.4495 2 14.8129V18.5711C2 18.95 2.12967 19.3135 2.36048 19.5815C2.5913 19.8495 2.90435 20 3.23077 20H16.7692C17.0956 20 17.4087 19.8495 17.6395 19.5815C17.8703 19.3135 18 18.95 18 18.5711V14.8129C18.0021 14.4505 17.8855 14.1006 17.6738 13.8341ZM16.7692 18.5711H3.23077V14.8058C4.10291 13.7396 5.15279 12.8905 6.31652 12.3104C7.48025 11.7302 8.7335 11.431 9.99999 11.431C11.2665 11.431 12.5197 11.7302 13.6835 12.3104C14.8472 12.8905 15.8971 13.7396 16.7692 14.8058V18.5711Z" fill="black"/>
</g>
<defs>
<clipPath id="clip0_1_13">
<rect width="20" height="20" fill="white"/>
</clipPath>
</defs>
</svg>
