<svg width="20" height="20" viewBox="0 0 20 20" fill="none" xmlns="http://www.w3.org/2000/svg">
<g clip-path="url(#clip0_5_19)">
<path fill-rule="evenodd" clip-rule="evenodd" d="M4.95472 8.99248L7.37074 12.7128L14.8737 10.3121L10.1996 3.11466L4.95472 8.99248ZM6.53207 13.2575C6.65154 13.4415 6.82823 13.5812 7.0349 13.6549C7.24158 13.7286 7.46676 13.7323 7.67574 13.6654L15.1787 11.2647C15.3252 11.2178 15.4589 11.1377 15.5695 11.0307C15.68 10.9236 15.7643 10.7925 15.8159 10.6476C15.8675 10.5026 15.8849 10.3477 15.8669 10.1949C15.8488 10.0422 15.7957 9.89559 15.7118 9.76666L11.0382 2.57002C10.9545 2.44104 10.8422 2.33311 10.71 2.25461C10.5777 2.17611 10.4292 2.12916 10.2759 2.11741C10.1225 2.10567 9.96858 2.12943 9.82594 2.18687C9.6833 2.24431 9.55583 2.33387 9.45343 2.44859L4.20857 8.32641C4.06245 8.49011 3.97423 8.69732 3.95751 8.91611C3.94079 9.1349 3.9965 9.35312 4.11605 9.53712L6.53207 13.2575Z" fill="white"/>
<path fill-rule="evenodd" clip-rule="evenodd" d="M4.89189 14.3012L6.60614 13.1879L4.20972 9.49777L2.49297 10.6126C2.39492 11.4114 2.58172 12.2192 3.02051 12.8939C3.4593 13.5686 4.12195 14.0669 4.89189 14.3012ZM7.15077 14.0266C7.3732 13.8821 7.52914 13.6552 7.58428 13.3958C7.63942 13.1364 7.58925 12.8657 7.44481 12.6433L5.04839 8.95313C4.90395 8.7307 4.67706 8.57476 4.41764 8.51962C4.15821 8.46448 3.88751 8.51465 3.66509 8.6591L1.78059 9.8829C1.71777 9.92362 1.66392 9.97674 1.62234 10.039C1.58076 10.1013 1.55234 10.1714 1.5388 10.245C1.11624 12.5357 2.57194 14.7644 4.83328 15.3217C4.90703 15.3397 4.98367 15.3425 5.05854 15.33C5.1334 15.3174 5.20494 15.2898 5.2688 15.2488L7.15077 14.0266Z" fill="white"/>
<path fill-rule="evenodd" clip-rule="evenodd" d="M8.94479 13.5411L6.68723 14.6734L7.99655 18.4852L10.2073 17.0495L8.94479 13.5411ZM6.23866 13.7806C6.02237 13.889 5.85271 14.0722 5.76112 14.2961C5.66953 14.52 5.66222 14.7695 5.74054 14.9984L7.05069 18.8097C7.10002 18.9535 7.18148 19.0841 7.28887 19.1917C7.39627 19.2993 7.52677 19.381 7.67047 19.4305C7.81416 19.4801 7.96727 19.4963 8.11815 19.4778C8.26902 19.4593 8.4137 19.4067 8.54119 19.3239L10.7519 17.8882C10.9412 17.7654 11.0834 17.5822 11.1553 17.3683C11.2273 17.1545 11.2248 16.9226 11.1483 16.7103L9.88584 13.2019C9.83798 13.0687 9.76239 12.9471 9.66406 12.8453C9.56573 12.7435 9.44691 12.6637 9.31545 12.6112C9.18399 12.5588 9.04289 12.5348 8.90148 12.5409C8.76007 12.547 8.62156 12.5831 8.49513 12.6468L6.23866 13.7806ZM14.2963 0.947807C14.418 1.00037 14.5138 1.09909 14.5627 1.22227C14.6116 1.34544 14.6097 1.483 14.5572 1.60471L13.8438 3.26034C13.8191 3.32251 13.7822 3.37909 13.7353 3.42674C13.6883 3.47439 13.6323 3.51213 13.5705 3.53773C13.5087 3.56332 13.4423 3.57626 13.3755 3.57577C13.3086 3.57527 13.2424 3.56136 13.181 3.53486C13.1196 3.50835 13.0641 3.46979 13.0179 3.42146C12.9716 3.37313 12.9356 3.31601 12.9118 3.25348C12.888 3.19095 12.877 3.12429 12.8795 3.05744C12.8819 2.99059 12.8978 2.92491 12.9261 2.8643L13.6394 1.20867C13.692 1.087 13.7907 0.991184 13.9139 0.94227C14.0371 0.893355 14.1746 0.895348 14.2963 0.947807ZM14.3817 5.51518C14.3094 5.40397 14.2844 5.26862 14.3119 5.1389C14.3395 5.00919 14.4175 4.89575 14.5287 4.82352L15.7867 4.00657C15.8979 3.93434 16.0333 3.90926 16.163 3.93683C16.2927 3.9644 16.4061 4.04237 16.4783 4.15358C16.5506 4.2648 16.5757 4.40015 16.5481 4.52986C16.5205 4.65957 16.4425 4.77301 16.3313 4.84524L15.0733 5.6622C14.9621 5.73442 14.8268 5.7595 14.6971 5.73193C14.5673 5.70436 14.4539 5.62639 14.3817 5.51518ZM15.6943 7.32169C15.7025 7.25648 15.7234 7.19351 15.7558 7.13639C15.7883 7.07926 15.8317 7.02909 15.8836 6.98876C15.9355 6.94842 15.9948 6.91871 16.0582 6.90132C16.1215 6.88393 16.1877 6.8792 16.2529 6.8874L18.0415 7.10782C18.1693 7.12837 18.2842 7.1977 18.3619 7.30121C18.4397 7.40472 18.4743 7.53435 18.4584 7.66283C18.4425 7.7913 18.3774 7.90861 18.2768 7.99008C18.1762 8.07154 18.0479 8.1108 17.9189 8.09961L16.1298 7.87835C15.9982 7.8622 15.8785 7.79451 15.7969 7.69013C15.7152 7.58575 15.6783 7.45324 15.6943 7.32169Z" fill="white"/>
</g>
<defs>
<clipPath id="clip0_5_19">
<rect width="20" height="20" fill="white"/>
</clipPath>
</defs>
</svg>
