<svg width="20" height="20" viewBox="0 0 20 20" fill="none" xmlns="http://www.w3.org/2000/svg">
<path d="M11.2711 3.58831C11.2923 3.50899 11.329 3.43463 11.3789 3.36947C11.4289 3.30432 11.4912 3.24964 11.5623 3.20858C11.6334 3.16752 11.7119 3.14086 11.7933 3.13015C11.8747 3.11943 11.9574 3.12486 12.0367 3.14612C13.1954 3.44842 14.2525 4.05412 15.0992 4.90083C15.9459 5.74755 16.5516 6.80466 16.8539 7.96331C16.8752 8.04261 16.8806 8.12533 16.8699 8.20674C16.8592 8.28814 16.8325 8.36664 16.7915 8.43774C16.7504 8.50884 16.6957 8.57115 16.6306 8.62112C16.5654 8.67108 16.491 8.70772 16.4117 8.72893C16.3589 8.74282 16.3046 8.74991 16.25 8.75003C16.1123 8.75002 15.9784 8.70452 15.8692 8.62061C15.76 8.53669 15.6816 8.41905 15.6461 8.28596C15.3995 7.34012 14.9052 6.47714 14.2141 5.78598C13.5229 5.09482 12.6599 4.60048 11.7141 4.35393C11.6347 4.3328 11.5602 4.29622 11.495 4.2463C11.4298 4.19637 11.375 4.13407 11.3339 4.06296C11.2927 3.99185 11.266 3.91332 11.2552 3.83188C11.2445 3.75043 11.2499 3.66766 11.2711 3.58831ZM11.0891 6.85393C12.1664 7.14143 12.8586 7.83362 13.1461 8.91096C13.1816 9.04405 13.26 9.16169 13.3692 9.24561C13.4784 9.32952 13.6123 9.37502 13.75 9.37503C13.8046 9.37491 13.8589 9.36782 13.9117 9.35393C13.991 9.33272 14.0654 9.29608 14.1306 9.24612C14.1957 9.19615 14.2504 9.13384 14.2915 9.06274C14.3325 8.99164 14.3592 8.91314 14.3699 8.83174C14.3806 8.75033 14.3752 8.66761 14.3539 8.58831C13.9539 7.09143 12.9086 6.04612 11.4117 5.64612C11.2516 5.60333 11.081 5.62592 10.9374 5.70892C10.7939 5.79192 10.6893 5.92853 10.6465 6.0887C10.6037 6.24886 10.6263 6.41947 10.7093 6.56298C10.7923 6.70648 10.9289 6.81114 11.0891 6.85393ZM17.4906 14.3031C17.3513 15.3618 16.8314 16.3335 16.0281 17.0368C15.2247 17.7401 14.1927 18.1269 13.125 18.125C6.92188 18.125 1.87501 13.0782 1.87501 6.87503C1.87309 5.80728 2.25992 4.77536 2.96324 3.97197C3.66655 3.16859 4.63826 2.6487 5.69688 2.5094C5.96458 2.47671 6.23567 2.53148 6.46968 2.66552C6.7037 2.79957 6.88809 3.0057 6.99532 3.25315L8.64532 6.93674V6.94612C8.72742 7.13554 8.76133 7.34234 8.74401 7.54805C8.7267 7.75377 8.6587 7.95199 8.5461 8.12503C8.53204 8.14612 8.51719 8.16565 8.50157 8.18518L6.87501 10.1133C7.46016 11.3024 8.70391 12.5352 9.9086 13.1219L11.8102 11.5039C11.8288 11.4882 11.8484 11.4736 11.8688 11.4602C12.0416 11.3449 12.2405 11.2745 12.4475 11.2554C12.6544 11.2363 12.8628 11.2691 13.0539 11.3508L13.0641 11.3555L16.7445 13.0047C16.9924 13.1116 17.1991 13.2958 17.3335 13.5298C17.468 13.7639 17.5231 14.0352 17.4906 14.3031ZM16.25 14.1469H16.2414L12.5695 12.5024L10.6672 14.1203C10.6488 14.136 10.6295 14.1506 10.6094 14.1641C10.4295 14.2841 10.2216 14.3554 10.0059 14.371C9.79023 14.3866 9.5742 14.346 9.37891 14.2531C7.91563 13.5461 6.45704 12.0985 5.74923 10.6508C5.6555 10.4569 5.61344 10.2422 5.62713 10.0273C5.64082 9.81236 5.70978 9.60465 5.82735 9.42424C5.84057 9.40304 5.85546 9.38292 5.87188 9.36409L7.50001 7.43362L5.85938 3.76174C5.85907 3.75863 5.85907 3.75549 5.85938 3.75237C5.10177 3.8512 4.40616 4.22281 3.90283 4.79761C3.3995 5.37242 3.12296 6.111 3.12501 6.87503C3.1279 9.5263 4.1824 12.0682 6.05714 13.9429C7.93187 15.8176 10.4737 16.8721 13.125 16.875C13.8886 16.8776 14.6269 16.6021 15.2021 16.0998C15.7772 15.5976 16.1497 14.9031 16.25 14.1461V14.1469Z" fill="black"/>
</svg>
