<svg width="20" height="20" viewBox="0 0 20 20" fill="none" xmlns="http://www.w3.org/2000/svg">
<g clip-path="url(#clip0_6_67)">
<path d="M0 7.77635C0 12.0627 3.48989 15.5527 7.77605 15.5527C9.63841 15.5527 11.3453 14.8995 12.6851 13.803L18.8802 20L20 18.881L13.8033 12.6848C14.9379 11.301 15.5561 9.56582 15.5521 7.77635C15.5521 3.49003 12.0622 -3.18485e-08 7.77605 -3.18485e-08C3.48989 -3.18485e-08 0 3.49003 0 7.77635ZM1.55521 7.77635C1.55521 4.33143 4.33126 1.55527 7.77605 1.55527C11.2208 1.55527 13.9969 4.33143 13.9969 7.77635C13.9969 11.2213 11.2208 13.9974 7.77605 13.9974C4.33126 13.9974 1.55521 11.2213 1.55521 7.77635Z" fill="black"/>
</g>
<defs>
<clipPath id="clip0_6_67">
<rect width="20" height="20" fill="white"/>
</clipPath>
</defs>
</svg>
