<svg version="1.0" xmlns="http://www.w3.org/2000/svg"  viewBox="0 0 512.000000 512.000000" width="40" height="40"
     preserveAspectRatio="xMidYMid meet" id="call_icon">
    <g transform="translate(0.000000,512.000000) scale(0.100000,-0.100000)"
       fill="#000000" stroke="none">
        <path d="M1655 4800 c-195 -41 -352 -179 -417 -368 l-23 -67 0 -1805 0 -1805 23 -66 c57 -166 185 -294 350 -351 l67 -23 905 0 905 0 67 23 c165 57 293 185 350 351 l23 66 0 1805 0 1805 -23 67 c-57 164 -178 286 -348 350 l-59 23 -890 2 c-489 0 -908 -3 -930 -7z m1790 -307 c29 -9 66 -33 90 -58 81 -81 75 75 75 -1875 0 -1950 6 -1794 -75 -1875 -78 -78 -33 -75 -975 -75 -942 0 -897 -3 -975 75 -81 81 -75 -75 -75 1875 0 1950 -6 1794 75 1875 76 77 29 73 971 74
                        757 1 845 -1 889 -16z"/><path d="M2288 4189 c-43 -22 -78 -81 -78 -129 0 -50 35 -107 80 -130 36 -18 58 -20 270 -20 212 0 234 2 270 20 45 23 80 80 80 130 0 50 -35 107 -80 130 -36 18 -58 20 -272 20 -212 -1 -236 -3 -270 -21z"/><path d="M2288 1189 c-43 -22 -78 -81 -78 -129 0 -50 35 -107 80 -130 36 -18 58 -20 270 -20 212 0 234 2 270 20 45 23 80 80 80 130 0 50 -35 107 -80 130
                        -36 18 -58 20 -272 20 -212 -1 -236 -3 -270 -21z"/><path d="M275 3587 c-32 -18 -48 -38 -77 -97 -77 -153 -140 -364 -174 -580 -25 -160 -26 -527 -1 -693 32 -215 96 -431 175 -587 41 -82 88 -120 150 -120 77 0 152 73 152 149 0 16 -18 68 -40 115 -218 475 -211 1154 16 1608 13 26 24 61 24 78 0 50 -35 107 -80 130 -51 26 -95 25 -145 -3z"/>
        <path d="M4698 3589 c-42 -22 -78 -81 -78 -128 0 -16 18 -68 40 -115 213 -463  212 -1127 -1 -1570 -21 -45 -39 -96 -39 -114 0 -79 73 -152 152 -152 62 0 109
                        38 150 120 79 156 143 372 175 587 24 164 24 522 0 686 -32 215 -96 431 -175
                        587 -29 59 -45 79 -77 97 -49 28 -98 28 -147 2z"/>
        <path d="M780 3292 c-58 -31 -135 -179 -180 -347 -93 -350 -49 -765 110 -1042
                        50 -87 129 -114 210 -73 45 23 80 80 80 131 0 18 -16 63 -35 100 -152 295
                        -152 696 0 999 41 81 43 120 12 174 -40 70 -126 95 -197 58z"/>
        <path d="M4200 3291 c-42 -22 -80 -83 -80 -129 0 -18 16 -64 35 -102 152 -303
                        152 -704 0 -999 -41 -79 -44 -120 -12 -175 61 -107 201 -99 267 17 211 367
                        211 947 0 1314 -49 85 -134 115 -210 74z"/>
    </g>
</svg>
