<svg width="20" height="20" viewBox="0 0 11 11" fill="none" xmlns="http://www.w3.org/2000/svg" id="searchCategory">
<g clip-path="url(#clip0_2691_263)">
<path d="M7.66162 9.05843H1.39681C0.625772 9.05749 0.000945534 8.43266 0 7.66162V1.39681C0.000945534 0.625772 0.625772 0.000945534 1.39681 0H7.66162C8.43266 0.000945534 9.05749 0.625772 9.05843 1.39681V7.66162C9.05749 8.43266 8.43266 9.05749 7.66162 9.05843ZM1.39681 0.644682C0.981421 0.644682 0.644682 0.981421 0.644682 1.39681V7.66162C0.644682 8.07701 0.981421 8.41375 1.39681 8.41375H7.66162C8.07701 8.41375 8.41375 8.07701 8.41375 7.66162V1.39681C8.41375 0.981421 8.07701 0.644682 7.66162 0.644682H1.39681Z" fill="black"/>
<path d="M9.5991 11H3.34267C2.56929 10.9992 1.9425 10.3725 1.94156 9.5991V8.73608C1.94156 8.55806 2.08588 8.41374 2.2639 8.41374C2.44192 8.41374 2.58624 8.55806 2.58624 8.73608V9.5991C2.58684 10.0166 2.92519 10.3548 3.34267 10.3553H9.5991C10.0165 10.3548 10.3548 10.0165 10.3553 9.5991V3.34267C10.3548 2.92519 10.0166 2.58684 9.5991 2.58624H8.73608C8.55806 2.58624 8.41374 2.44192 8.41374 2.2639C8.41374 2.08588 8.55806 1.94156 8.73608 1.94156H9.5991C10.3725 1.9425 10.9992 2.56929 11 3.34267V9.5991C10.9992 10.3724 10.3724 10.9992 9.5991 11Z" fill="black"/>
</g>
<defs>
<clipPath id="clip0_2691_263">
<rect width="11" height="11" fill="white"/>
</clipPath>
</defs>
</svg>
